<svg width="33.3497px" height="34px" xmlns="http://www.w3.org/2000/svg" viewBox="0 0 33.35 34"><path d="M16.67,33.35a16.64,16.64,0,0,1-7-1.53,1.5,1.5,0,0,1,1.25-2.72A13.7,13.7,0,0,0,30.28,18.17H16.57a1.5,1.5,0,0,1,0-3H31.85a1.5,1.5,0,0,1,1.5,1.49A16.7,16.7,0,0,1,16.67,33.35" style="fill:#fff;fill-rule:evenodd"/><path d="M3.05,24.88A1.5,1.5,0,0,1,1.71,24,16.68,16.68,0,0,1,28.47,4.88,1.5,1.5,0,0,1,26.35,7a13.69,13.69,0,0,0-22,15.72,1.48,1.48,0,0,1-.68,2,1.4,1.4,0,0,1-.66.16" style="fill:#fff;fill-rule:evenodd"/><path d="M16.67,27.3a10.63,10.63,0,1,1,4-20.46A1,1,0,0,1,20,8.62a8.71,8.71,0,1,0,5.4,8.05,1,1,0,0,1,1.92,0A10.64,10.64,0,0,1,16.67,27.3" style="fill:#fff;fill-rule:evenodd"/><path d="M25.35,10A1.69,1.69,0,1,1,23.66,8.3,1.69,1.69,0,0,1,25.35,10" style="fill:#fff;fill-rule:evenodd"/><path d="M8.34,27.54A2.24,2.24,0,1,1,6.1,25.3a2.24,2.24,0,0,1,2.24,2.24" style="fill:#fff;fill-rule:evenodd"/></svg>