<?xml version="1.0" encoding="UTF-8"?>
<svg width="180px" height="34px" viewBox="0 0 180 34" version="1.1" xmlns="http://www.w3.org/2000/svg" xmlns:xlink="http://www.w3.org/1999/xlink">
    <title>Gravity Logo - White</title>
    <g id="Symbols" stroke="none" stroke-width="1" fill="none" fill-rule="evenodd">
        <g id="Nav/Expanded" transform="translate(-35.000000, -45.000000)" fill="#FFFFFF">
            <g id="Gravity-Logo---White" transform="translate(35.000000, 45.000000)">
                <path d="M16.6747846,33.3495338 C14.2335749,33.3495338 11.8795385,32.8332263 9.6785871,31.8151401 C8.92910841,31.4678639 8.60238531,30.5794748 8.94930712,29.8292874 C9.29622894,29.0790999 10.1856812,28.7530856 10.9348055,29.1000074 C12.7392242,29.9348877 14.670505,30.358352 16.6747846,30.358352 C23.7145689,30.358352 29.5296731,25.0145512 30.2770256,18.1703756 L16.5744998,18.1703756 C15.7484786,18.1703756 15.079086,17.5006287 15.079086,16.6746075 C15.079086,15.8485863 15.7484786,15.1791937 16.5744998,15.1791937 L31.8539429,15.1791937 C32.6799641,15.1791937 33.349711,15.8485863 33.349711,16.6746075 C33.349711,25.8692758 25.869453,33.3495338 16.6747846,33.3495338" id="Fill-1"></path>
                <path d="M3.05425855,24.8756053 C2.50251467,24.8756053 1.97203259,24.5694353 1.71157545,24.0414337 C0.575840602,21.7380713 5.03580747e-15,19.2596534 5.03580747e-15,16.674572 C5.03580747e-15,7.48025801 7.48025801,0 16.6749264,0 C21.1285662,0 25.3160791,1.73425471 28.4656614,4.88348267 C29.0496523,5.467828 29.0496523,6.41504149 28.4656614,6.99903245 C27.8816704,7.58302341 26.9344569,7.58302341 26.3501116,6.99903245 C23.765739,4.41465983 20.3294766,2.99118186 16.6749264,2.99118186 C9.12981986,2.99118186 2.99118186,9.1294655 2.99118186,16.674572 C2.99118186,18.7968547 3.46354834,20.8301922 4.39446111,22.7178863 C4.75980983,23.4588602 4.45541163,24.3557541 3.71443766,24.7207485 C3.50181959,24.8259944 3.27609007,24.8756053 3.05425855,24.8756053" id="Fill-3"></path>
                <path d="M16.6747846,27.2976795 C10.8171569,27.2976795 6.05167721,22.5325542 6.05167721,16.674572 C6.05167721,10.8172986 10.8171569,6.05146459 16.6747846,6.05146459 C18.0706223,6.05146459 19.4281886,6.31865463 20.7092125,6.84488435 C21.1985884,7.04616279 21.4324683,7.60570267 21.2311898,8.09507859 C21.0302658,8.58445452 20.4700172,8.81798003 19.9809956,8.61705595 C18.9320798,8.18615 17.8197329,7.96786212 16.6747846,7.96786212 C11.8738687,7.96786212 7.96807474,11.873656 7.96807474,16.674572 C7.96807474,21.4758424 11.8738687,25.3819907 16.6747846,25.3819907 C21.4757006,25.3819907 25.3814945,21.4758424 25.3814945,16.674572 C25.3814945,16.1455074 25.8106287,15.7167276 26.3396933,15.7167276 C26.8687579,15.7167276 27.2978921,16.1455074 27.2978921,16.674572 C27.2978921,22.5325542 22.5324124,27.2976795 16.6747846,27.2976795" id="Fill-5"></path>
                <path d="M67.8939812,16.5674125 C67.8939812,22.0185854 64.5041405,25.1642698 59.7606314,25.1642698 C55.0174766,25.1642698 51.0057281,21.3474211 51.0057281,16.3360132 C51.0057281,11.2512521 54.9324294,7.50775662 59.6146336,7.50775662 C63.5774801,7.50775662 66.2965108,9.59283114 67.4184255,12.5680666 C67.5888743,13.0436224 67.3454266,13.348375 66.8450654,13.348375 L65.1384511,13.348375 C64.7482969,13.348375 64.5041405,13.1779261 64.3336917,12.8242714 C63.4552247,11.0928516 61.8092065,10.0439358 59.6511331,10.0439358 C56.6883003,10.0439358 53.920013,12.4585683 53.920013,16.3360132 C53.920013,20.1401048 56.712397,22.6404933 59.7850825,22.6404933 C62.3701638,22.6404933 64.4920921,20.8846224 64.7723936,18.3597828 L60.0047878,18.3597828 C59.5657315,18.3597828 59.3219294,18.1163351 59.3219294,17.6769245 L59.3219294,16.6896679 C59.3219294,16.2506116 59.5657315,16.0068095 60.0047878,16.0068095 L67.2111229,16.0068095 C67.6501792,16.0068095 67.8939812,16.2020638 67.8939812,16.5674125" id="Fill-7"></path>
                <path d="M78.5501862,16.238138 L81.2578773,16.238138 C83.2940497,16.238138 84.4524638,15.0432245 84.4524638,13.2388058 C84.4524638,11.4095817 83.2940497,10.2267165 81.2578773,10.2267165 L78.5501862,10.2267165 L78.5501862,16.238138 Z M87.3422977,13.2147091 C87.3422977,15.8603866 85.8422772,17.7502068 83.3305491,18.3600663 L87.1473978,24.0419298 C87.4525047,24.5054372 87.2692988,24.871849 86.7076328,24.871849 L85.0743716,24.871849 C84.7083142,24.871849 84.4645122,24.749948 84.2575639,24.4324384 L80.3794103,18.6159167 L78.5501862,18.6159167 L78.5501862,24.1886363 C78.5501862,24.6273383 78.3063842,24.871849 77.8676822,24.871849 L76.3683705,24.871849 C75.9286054,24.871849 75.6851577,24.6273383 75.6851577,24.1886363 L75.6851577,8.48324832 C75.6851577,8.04383764 75.9286054,7.80038995 76.3683705,7.80038995 L81.4279718,7.80038995 C85.0616146,7.80038995 87.3422977,9.94641499 87.3422977,13.2147091 L87.3422977,13.2147091 Z" id="Fill-9"></path>
                <path d="M101.765989,10.9219421 L99.1929556,18.3479825 L104.339376,18.3479825 L101.765989,10.9219421 Z M103.559068,8.34890913 L109.338735,24.0915053 C109.509893,24.567061 109.290188,24.8718136 108.789826,24.8718136 L107.132114,24.8718136 C106.74196,24.8718136 106.485401,24.6886077 106.351806,24.323259 L105.119684,20.7502123 L98.4005989,20.7502123 L97.1698946,24.323259 C97.0352365,24.6886077 96.7793861,24.8718136 96.389232,24.8718136 L94.7304567,24.8718136 C94.2304498,24.8718136 94.0114532,24.567061 94.181902,24.0915053 L99.9736182,8.34890913 C100.108276,7.9711577 100.363772,7.80035452 100.753927,7.80035452 L102.778051,7.80035452 C103.168913,7.80035452 103.425118,7.9711577 103.559068,8.34890913 L103.559068,8.34890913 Z" id="Fill-11"></path>
                <path d="M126.054839,8.34901544 C126.188434,7.982958 126.444993,7.80046082 126.835147,7.80046082 L128.45636,7.80046082 C128.956721,7.80046082 129.176426,8.10521339 129.005269,8.58076914 L123.213553,24.3233653 C123.079958,24.7007624 122.823399,24.8719199 122.433244,24.8719199 L120.408766,24.8719199 C120.018612,24.8719199 119.763116,24.7007624 119.628458,24.3233653 L113.84879,8.58076914 C113.678341,8.10521339 113.897338,7.80046082 114.397345,7.80046082 L116.01962,7.80046082 C116.409775,7.80046082 116.665271,7.982958 116.799929,8.34901544 L121.421182,21.3601781 L126.054839,8.34901544 Z" id="Fill-13"></path>
                <path d="M139.686067,8.48321288 L139.686067,24.1886009 C139.686067,24.6273028 139.441556,24.8718136 139.002854,24.8718136 L137.490431,24.8718136 C137.051729,24.8718136 136.808281,24.6273028 136.808281,24.1886009 L136.808281,8.48321288 C136.808281,8.04415657 137.051729,7.80035452 137.490431,7.80035452 L139.002854,7.80035452 C139.441556,7.80035452 139.686067,8.04415657 139.686067,8.48321288" id="Fill-15"></path>
                <path d="M148.099116,10.2880922 C147.659351,10.2880922 147.415903,10.0439358 147.415903,9.6048795 L147.415903,8.48331919 C147.415903,8.04390851 147.659351,7.80046082 148.099116,7.80046082 L158.792741,7.80046082 C159.231798,7.80046082 159.475245,8.04390851 159.475245,8.48331919 L159.475245,9.6048795 C159.475245,10.0439358 159.231798,10.2880922 158.792741,10.2880922 L154.890845,10.2880922 L154.890845,24.1887072 C154.890845,24.6274091 154.646335,24.8719199 154.207633,24.8719199 L152.69521,24.8719199 C152.256508,24.8719199 152.01306,24.6274091 152.01306,24.1887072 L152.01306,10.2880922 L148.099116,10.2880922 Z" id="Fill-17"></path>
                <path d="M176.984698,8.26382647 C177.167904,7.94702555 177.424463,7.80031908 177.789811,7.80031908 L179.412087,7.80031908 C179.947885,7.80031908 180.155896,8.1539738 179.874532,8.61748119 L174.399971,17.9329875 L174.399971,24.1885654 C174.399971,24.6272674 174.156169,24.8717782 173.717467,24.8717782 L172.205398,24.8717782 C171.766342,24.8717782 171.521831,24.6272674 171.521831,24.1885654 L171.521831,17.9329875 L166.04727,8.61748119 C165.766968,8.1539738 165.973917,7.80031908 166.510777,7.80031908 L168.119942,7.80031908 C168.486353,7.80031908 168.742204,7.94702555 168.925055,8.26382647 L172.960901,15.165409 L176.984698,8.26382647 Z" id="Fill-19"></path>
                <path d="M25.345066,9.97710286 C25.345066,10.9058895 24.5920437,11.6589118 23.6632571,11.6589118 C22.7341161,11.6589118 21.9810938,10.9058895 21.9810938,9.97710286 C21.9810938,9.04831627 22.7341161,8.29529394 23.6632571,8.29529394 C24.5920437,8.29529394 25.345066,9.04831627 25.345066,9.97710286" id="Fill-21"></path>
                <path d="M8.34100683,27.5396034 C8.34100683,28.7770405 7.33780391,29.7798891 6.10072111,29.7798891 C4.86328395,29.7798891 3.8604354,28.7770405 3.8604354,27.5396034 C3.8604354,26.3021662 4.86328395,25.2993177 6.10072111,25.2993177 C7.33780391,25.2993177 8.34100683,26.3021662 8.34100683,27.5396034" id="Fill-23"></path>
            </g>
        </g>
    </g>
</svg>